<svg width="104" height="17" viewBox="0 0 104 17" fill="none" xmlns="http://www.w3.org/2000/svg">
<path d="M15.492 0.809862V15.9999H12.02V7.16796L8.0923 13.6129H7.7017L3.774 7.16796V15.9999H0.302002V0.809862H3.774L7.897 7.55856L12.02 0.809862H15.492Z" fill="black"/>
<path d="M23.2023 16.3037C20.0124 16.3037 17.4518 13.8082 17.4518 10.5749C17.4518 7.34156 20.0124 4.84606 23.2023 4.84606C26.3922 4.84606 28.9528 7.34156 28.9528 10.5749C28.9528 13.8082 26.3922 16.3037 23.2023 16.3037ZM23.2023 13.1355C24.6128 13.1355 25.6978 12.1156 25.6978 10.5749C25.6978 9.03416 24.6128 8.01426 23.2023 8.01426C21.7918 8.01426 20.7068 9.03416 20.7068 10.5749C20.7068 12.1156 21.7918 13.1355 23.2023 13.1355Z" fill="black"/>
<path d="M38.671 0.809862H41.926V15.9999H38.671V14.98C37.9549 15.8046 36.8916 16.3037 35.4377 16.3037C32.595 16.3037 30.2514 13.8082 30.2514 10.5749C30.2514 7.34156 32.595 4.84606 35.4377 4.84606C36.8916 4.84606 37.9549 5.34516 38.671 6.16976V0.809862ZM36.0887 13.2223C37.586 13.2223 38.671 12.2024 38.671 10.5749C38.671 8.94736 37.586 7.92746 36.0887 7.92746C34.5914 7.92746 33.5064 8.94736 33.5064 10.5749C33.5064 12.2024 34.5914 13.2223 36.0887 13.2223Z" fill="black"/>
<path d="M47.2218 11.8769C47.6341 13.0053 48.6323 13.3959 49.8258 13.3959C50.7155 13.3959 51.475 13.0487 51.909 12.5713L54.513 14.0686C53.4497 15.5442 51.8439 16.3037 49.7824 16.3037C46.0717 16.3037 43.7715 13.8082 43.7715 10.5749C43.7715 7.34156 46.1151 4.84606 49.5437 4.84606C52.7119 4.84606 55.0555 7.29816 55.0555 10.5749C55.0555 11.0306 55.0121 11.4646 54.9253 11.8769H47.2218ZM47.1567 9.44646H51.8222C51.475 8.18786 50.4985 7.73216 49.522 7.73216C48.2851 7.73216 47.4605 8.33976 47.1567 9.44646Z" fill="black"/>
<path d="M60.1567 7.08116C60.5907 5.62726 62.0446 4.93286 63.4117 4.93286V8.62186C62.0663 8.40486 60.1567 8.94736 60.1567 11.0957V15.9999H56.9017V5.14986H60.1567V7.08116Z" fill="black"/>
<path d="M71.2914 4.84606C73.4831 4.84606 75.3493 6.40846 75.3493 9.33796V15.9999H72.0942V9.81536C72.0942 8.46996 71.2479 7.84066 70.2063 7.84066C69.0128 7.84066 68.1882 8.53506 68.1882 10.0758V15.9999H64.9333V5.14986H68.1882V6.16976C68.7741 5.36686 69.8592 4.84606 71.2914 4.84606Z" fill="black"/>
<path d="M79.212 4.19506C78.1487 4.19506 77.259 3.30536 77.259 2.24206C77.259 1.17876 78.1487 0.289062 79.212 0.289062C80.2753 0.289062 81.165 1.17876 81.165 2.24206C81.165 3.30536 80.2753 4.19506 79.212 4.19506ZM77.5845 15.9999V5.14986H80.8395V15.9999H77.5845Z" fill="black"/>
<path d="M87.2576 12.9619H91.5759V15.9999H82.8959V13.8299L86.9972 8.18786H83.1129V5.14986H91.3589V7.31986L87.2576 12.9619Z" fill="black"/>
<path d="M95.7713 11.8769C96.1836 13.0053 97.1818 13.3959 98.3753 13.3959C99.265 13.3959 100.025 13.0487 100.459 12.5713L103.063 14.0686C101.999 15.5442 100.393 16.3037 98.3319 16.3037C94.6212 16.3037 92.321 13.8082 92.321 10.5749C92.321 7.34156 94.6646 4.84606 98.0932 4.84606C101.261 4.84606 103.605 7.29816 103.605 10.5749C103.605 11.0306 103.562 11.4646 103.475 11.8769H95.7713ZM95.7062 9.44646H100.372C100.025 8.18786 99.048 7.73216 98.0715 7.73216C96.8346 7.73216 96.01 8.33976 95.7062 9.44646Z" fill="black"/>
</svg>
